<svg version="1.1" id="Layer_1" xmlns="http://www.w3.org/2000/svg" xmlns:xlink="http://www.w3.org/1999/xlink" x="0px" y="0px" viewBox="0 0 126.5 47.8" style="enable-background:new 0 0 126.5 47.8;" xml:space="preserve">
 <g>
  <path d="M24.1,0h-6.3v11.7c-2.1,0-4.4,0-5.7,0c-6.6,0-12,5.4-12,12c0,6.6,5.4,12,12,12c6.6,0,12-5.4,12-12c0-3.3,0-12,0-12L24.1,0z
		 M17.7,23.7c0,3.2-2.6,5.7-5.7,5.7c-3.2,0-5.7-2.6-5.7-5.7c0-3.2,2.6-5.7,5.7-5.7l5.7,0L17.7,23.7z M75.9,23.7c0-6.6,5.4-12,12-12
		c6.6,0,12,5.4,12,12c0,6.6-5.4,12-12,12C81.3,35.7,75.9,30.4,75.9,23.7 M87.9,29.5c3.2,0,5.7-2.6,5.7-5.7c0-3.2-2.6-5.7-5.7-5.7
		c-3.2,0-5.7,2.6-5.7,5.7C82.2,26.9,84.8,29.5,87.9,29.5 M120.2,23.7c0-3.1-2.5-5.7-5.7-5.7c-3.1,0-5.7,2.5-5.7,5.7
		c0,1.5,0,11.5,0,11.5c-3.2,0-6.3,0-6.3,0s0-8.2,0-11.5c0-6.6,5.4-12,12-12c6.6,0,12,5.4,12,12c0,3.4,0,11.5,0,11.5s-3.1,0-6.3,0
		C120.2,35.2,120.2,25.3,120.2,23.7 M70.6,22.8c5.9,3.1,3,8.7,2.3,9.5c-3.6,4.5-10.1,3.3-10.1,3.3c-4.1-0.7-6.7-2-8.8-3.6l3-4.2
		c1.5,1.1,5.9,3,9.2,2.2c2-0.4,2.4-1.9,1.1-2.6c-1.6-0.9-6.7-1.5-9.7-3.4c-4.9-3.1-2.4-8-2.4-8c2.8-5.2,9.7-4.4,9.7-4.4
		c4.1,0.3,6.9,1.7,8.2,2.7l-3,4.1c-2.9-1.3-6.1-1.7-8.1-1.2c-1.5,0.4-1.8,1.5-0.9,2.1C62.7,20.6,67.6,21.3,70.6,22.8 M31.6,39.9
		c0.3,0.2,3.2,2.2,6.1,2.2c6.9,0.1,7.3-7,7.3-8.7c-1.3,1.4-4,2.3-5.7,2.3c-6.6,0-12-5.2-12-11.8c0-3.3,0-11.7,0-11.7s3.1,0,6.3,0
		c0,0,0,10.3,0,11.7c0,3.1,2.5,5.7,5.7,5.7c3.1,0,5.7-2.5,5.7-5.7c0-1.3,0-11.7,0-11.7c3.2,0,6.3,0,6.3,0l0,11.7
		c0,10.4,0.5,21.1-9.6,23.5c-7.6,1.8-13-3-13.3-3.2L31.6,39.9z">
  </path>
 </g>
</svg>