<svg aria-hidden="true" fill="none" focusable="false" height="132" role="img" viewBox="0 0 639 79" width="1296" xmlns="http://www.w3.org/2000/svg"><path d="M568.285 77.465v-4.218c8.599 0 11.946-3.271 11.946-11.307V17.063c0-7.386-2.923-11.403-11.946-11.403V1.3h63.919v17.07h-4.007c-3.91-10.106-8.574-12.169-17.93-12.169h-18.304V36.85h10.765c10.559 0 13.829-1.745 14.372-9.679h4.479v24.333H617.1c-1.295-8.364-4.475-9.777-14.159-9.777h-10.978V58.69c0 10.744 3.062 14.016 13.053 14.016h4.923c12.51 0 17.929-3.272 23.254-13.806h5.114l-5.114 18.566h-64.908ZM492.799 5.66V1.3h37.061v4.36c-10.32 0-12.724 4.335-12.724 10.756v41.613c0 10.226 3.817 14.676 14.891 14.676h1.814c9.778 0 16.186-3.815 21.838-13.806h4.668l-4.668 18.566h-62.88v-4.218c10.553-.66 12.724-3.037 12.724-12.72V16.85c0-7.504-2.616-11.191-12.724-11.191Zm-19.366 14.56c-5.773-9.459-17.624-14.997-27.496-14.997-16.301 0-27.164 14.23-27.164 31.507 0 17.056 10.412 36.73 30.958 36.73 13.266 0 19.461-7.821 24.456-19.767h5.324l-4.454 19.435c-7.069 3.158-18.257 5.538-26.74 5.538-7.068 0-13.569-.87-19.977-3.582-12.935-5.441-22.715-16.938-22.715-33.9 0-25.204 19.015-41.179 43.446-41.179 5.773 0 16.302.872 23.042 2.603l4.9 17.175zM324.551 33.03c0 15.76 9.993 40.43 29.904 40.43 15.856 0 23.346-13.594 23.346-27.824 0-15.744-9.988-40.413-29.873-40.413-15.873 0-23.377 13.583-23.377 27.807m16.52 44.34c-17.38-4.452-29.338-18.918-29.338-37.18 0-24.105 17.06-40.185 37.702-40.185 4.124 0 8.153.33 11.853 1.295 17.269 4.465 29.001 17.943 29.001 36.96 0 24.221-16.609 40.406-37.365 40.406-4.124 0-8.153-.307-11.853-1.295ZM219.485 10.22c-3.58-3.475-6.078-4.136-10.318-4.56V1.3h18.152l57.038 57.93V22.6c0-8.68-2.073-16.94-13.265-16.94V1.302h30.217V5.66c-8.364 0-11.956 6.95-11.956 16.94v33.474c0 9.448.104 14.23.764 22.382h-5.429c-3.487-4.667-6.739-7.943-9.237-10.532l-46.294-47.598v38.788c0 9.987 4.571 14.133 13.687 14.133v4.218h-31.947v-4.218c9.684 0 13.582-3.037 13.582-11.757V15.109zm-86.159 22.81c0 15.76 9.989 40.43 29.874 40.43 15.868 0 23.372-13.594 23.372-27.824 0-15.744-10.003-40.413-29.897-40.413-15.856 0-23.349 13.583-23.349 27.807m16.515 44.34c-17.387-4.452-29.344-18.918-29.344-37.18 0-24.105 17.07-40.185 37.707-40.185 4.125 0 8.155.33 11.84 1.295 17.283 4.465 29.015 17.943 29.015 36.96 0 24.221-16.622 40.406-37.379 40.406-4.123 0-8.139-.307-11.839-1.295ZM38.462 22.06l16.633 37.266L71.388 22.39C76.17 11.633 77.9 4.789 78.773 1.3h21.299v4.36c-6.844.65-8.694 3.37-8.694 8.47 0 1.308.106 2.828.33 4.464l5.325 43.556c.753 6.41 3.368 10.227 11.509 11.097v4.218H75.31v-4.218c6.621 0 9.884-3.603 9.884-9.352 0-.753-.106-1.53-.225-2.405l-4.995-44.862-17.493 40.859c-3.263 7.703-5.336 13.145-7.386 19.978h-4.463c-2.605-7.255-5.868-14.113-8.471-19.554L22.275 16.734 16.188 57.04a36 36 0 0 0-.438 5.559c0 7.28 3.263 10.201 10.439 10.647v4.218H0v-4.218c6.633 0 9.448-3.368 10.649-11.307l6.303-41.401a33.6 33.6 0 0 0 .435-5.313c0-6.09-2.39-9.142-8.586-9.566V1.3h21.945c1.52 5.656 4.24 13.052 7.716 20.758Z" fill="currentColor"></path></svg>