<svg version="1.1" id="Layer_1" xmlns:x="ns_extend;" xmlns:i="ns_ai;" xmlns:graph="ns_graphs;" xmlns="http://www.w3.org/2000/svg" xmlns:xlink="http://www.w3.org/1999/xlink" x="0px" y="0px" viewBox="0 0 296.53 71" style="enable-background:new 0 0 296.53 71;" xml:space="preserve">
 <metadata>
  <sfw xmlns="ns_sfw;">
   <slices>
   </slices>
   <sliceSourceBounds bottomLeftOrigin="true" height="71" width="296.53" x="-60.54" y="-208.68">
   </sliceSourceBounds>
  </sfw>
 </metadata>
 <g>
  <path d="M58.6,26.52c-0.02,0.21-0.25,1.08-0.49,1.59L41.77,56.59c-0.93,1.59-3.23,2.63-5.86,2.63c-2.63,0-4.92-1.03-5.86-2.63
		L13.11,27.61c-0.09-0.23-0.29-0.88-0.29-1.07V0.1H0v25.43c0,3.59,1.71,7.13,3.15,9.46l16.74,28.1C22.8,67.97,28.91,71,35.86,71
		c3.22,0,6.34-0.67,9.03-1.94c2.92-1.38,5.25-3.44,6.74-5.97l16.26-27.51c1.81-3.11,3.44-6.21,3.44-10.05V0.1H58.6V26.52z">
  </path>
  <path d="M96.86,0H83.94v70.4h12.92V0z">
  </path>
  <path d="M170.85,11.37c-0.43,2.46-1.42,4.64-2.94,6.5c-1.57,1.92-3.7,3.43-6.15,4.37l-34.81,13.5c-3.97,1.53-7.08,3.31-9.51,5.43
		c-2.35,2.04-4.09,4.44-5.31,7.32c-1.1,2.59-1.8,5.56-2.2,9.34c-0.39,3.68-0.44,7.77-0.44,11.65v0.95h74.53V59.04h-61.44
		c0.26-3.24,0.87-5.61,1.94-7.39c1.14-1.91,2.86-3.27,5.42-4.28l35.22-13.5c3.89-1.5,7.02-3.3,9.6-5.51
		c2.47-2.11,4.36-4.53,5.79-7.42c1.31-2.64,2.21-5.64,2.76-9.17c0.48-3.06,0.7-6.51,0.7-10.82V0h-70.01v11.37H170.85z">
  </path>
  <path d="M209.57,0h-12.92v70.4h12.92V0z">
  </path>
  <path d="M290.12,5.85C286.06,2.08,280.59,0,274.71,0h-30.7c-12.03,0-21.82,9.28-21.82,20.69v29.02c0,11.41,9.79,20.69,21.82,20.69
		h30.7c5.78,0,11.23-2.12,15.37-5.99c4.16-3.89,6.45-9.03,6.45-14.51V20.69C296.52,14.97,294.25,9.7,290.12,5.85z M235.02,20.69
		c0-2.31,1-4.67,2.75-6.48c1.74-1.81,4.02-2.85,6.25-2.85h30.7c2.26,0,4.55,1.03,6.28,2.85c1.72,1.8,2.71,4.17,2.71,6.48v29.02
		c0,2.32-0.99,4.69-2.71,6.48c-1.73,1.81-4.02,2.85-6.28,2.85h-30.71c-2.26,0-4.55-1.03-6.28-2.85c-1.72-1.8-2.71-4.17-2.71-6.48
		V20.69z">
  </path>
 </g>
</svg>